<?xml version="1.0" encoding="UTF-8" standalone="no"?>
<svg
   xmlns:dc="http://purl.org/dc/elements/1.1/"
   xmlns:cc="http://creativecommons.org/ns#"
   xmlns:rdf="http://www.w3.org/1999/02/22-rdf-syntax-ns#"
   xmlns:svg="http://www.w3.org/2000/svg"
   xmlns="http://www.w3.org/2000/svg"
   xmlns:sodipodi="http://sodipodi.sourceforge.net/DTD/sodipodi-0.dtd"
   xmlns:inkscape="http://www.inkscape.org/namespaces/inkscape"
   id="Layer_1"
   data-name="Layer 1"
   viewBox="0 0 372.04 384.23"
   version="1.1"
   sodipodi:docname="ic-coin-cats.svg"
   inkscape:version="0.92.5 (2060ec1f9f, 2020-04-08)">
  <metadata
     id="metadata2954">
    <rdf:RDF>
      <cc:Work
         rdf:about="">
        <dc:format>image/svg+xml</dc:format>
        <dc:type
           rdf:resource="http://purl.org/dc/dcmitype/StillImage" />
        <dc:title>catscoin orange</dc:title>
      </cc:Work>
    </rdf:RDF>
  </metadata>
  <sodipodi:namedview
     pagecolor="#ffffff"
     bordercolor="#666666"
     borderopacity="1"
     objecttolerance="10"
     gridtolerance="10"
     guidetolerance="10"
     inkscape:pageopacity="0"
     inkscape:pageshadow="2"
     inkscape:window-width="1920"
     inkscape:window-height="1017"
     id="namedview2952"
     showgrid="false"
     inkscape:zoom="0.61421543"
     inkscape:cx="186.02"
     inkscape:cy="192.11501"
     inkscape:window-x="-8"
     inkscape:window-y="-8"
     inkscape:window-maximized="1"
     inkscape:current-layer="Layer_1" />
  <defs
     id="defs2871">
    <style
       id="style2869">.cls-1{fill:#294191;}.cls-2,.cls-3{fill:#f7941d;}.cls-3{font-size:74.94px;font-family:MyriadPro-Regular, Myriad Pro;}.cls-4{font-family:Algerian;}.cls-5{fill:none;stroke:#f7941d;stroke-miterlimit:10;stroke-width:8px;}</style>
  </defs>
  <title
     id="title2873">catscoin orange</title>
  <ellipse
     class="cls-1"
     cx="186.02"
     cy="192.11"
     rx="186.02"
     ry="192.11"
     id="ellipse2875"
     style="opacity:0.025" />
  <path
     class="cls-2"
     d="M199.53,253.43c-2.25-.06-8.12-11.18-8.12-11.18s5.7,12.43,5.18,12.95-3.1-1.45-3.1-1.45a16.48,16.48,0,0,1,1.9,6.69c4.83-16.35,30.16,12.43,41.67,35.45a290,290,0,0,0,20.43,35.21c-4.48-6.73-14.27-31.52-14.27-31.52,5.87,6.9,12.44,8.64,15.36,7.6a3.57,3.57,0,0,0,2.26-4.14s-1,3.79-4.67,2.59-8.93-6.77-20.2-21.25c-16.06-20.61-28.66-28.84-30.23-29.87s-10-12.26-8.11-9.33S201.78,253.48,199.53,253.43Z"
     transform="translate(-97.64 -202.99)"
     id="path2877" />
  <path
     class="cls-2"
     d="M257.49,331.1c.19.26.35.51.52.71Z"
     transform="translate(-97.64 -202.99)"
     id="path2879" />
  <path
     class="cls-2"
     d="M233.38,299.35s-14.3-2.8-25.11,5.27c0,0,16.12-2.41,25.11.89,0,0-10.29-4.26-16.58-3.32C216.8,302.19,225.55,299.12,233.38,299.35Z"
     transform="translate(-97.64 -202.99)"
     id="path2881" />
  <path
     class="cls-2"
     d="M240.51,317.77l-3.68-2.53s-12.69-4.61-28.56,10.12C208.27,325.36,222.33,314.78,240.51,317.77Z"
     transform="translate(-97.64 -202.99)"
     id="path2883" />
  <path
     class="cls-2"
     d="M199.79,392.93c2.89,5.14,2.28,15.1,2.28,15.2s2-13.4-1.49-19.62c-2.75-4.86-2.53-8.5,2-21.58,4.28-12.15,28.69-22.07,28.92-22.18l3-1.44s-10.76-3.56-12.78-4.27c7-4.33,18.51-5.16,18.59-5.15l.12-2.08-.13,2.08s-12-4.79-20.95,3.3l-3.19,2.89,4.24.69a24.65,24.65,0,0,1,6,1.92c-6,3.2-18.38,10.53-24.31,19.34-7.75-10.66-10.62-25.66-9-33.78,1.67-8.29.17-24.07.17-24.07v.45c.07,12-1.16,18.84-2.2,22.46-2.66,9.16-.76,28.78,8.18,40.79C195,380.51,196.19,386.48,199.79,392.93Z"
     transform="translate(-97.64 -202.99)"
     id="path2885" />
  <path
     class="cls-2"
     d="M245.29,387.42c-19.3.28-26.47,7.27-26.57,10.16a4.28,4.28,0,0,0,3.91,4.66s-3.25-3.11-.55-5.75,11.23-6.69,18.5-7.34c0,0-3.08,6.38,1,12.25s15.18,5.79,17.42,4.48a25.25,25.25,0,0,1-.75,11,13.31,13.31,0,0,1-6.53,7.54s9.33-.55,10.63-9.59c0,0,1.12,3.26,3.27-1.59,0,0-2.43.28-2.25-3.82S264.6,387.14,245.29,387.42ZM261,400.24c-1.05,2.78-4,4.44-7.77,4.44s-8.92-1.91-10.71-6.09c-3-6.92,0-9.6.11-9.72l.07-.07.12,0a24.43,24.43,0,0,1,4.65-.47c12.48,0,13.54,11.63,13.55,11.75v.1Z"
     transform="translate(-97.64 -202.99)"
     id="path2887" />
  <path
     class="cls-2"
     d="M244.13,389.55a30.09,30.09,0,0,0-5.39.54c-.49.54-2.81,3.66.22,10.72,2,4.73,7.8,6.88,12.28,6.88,4.22,0,7.42-1.74,8.59-4.68C259.69,401.6,258,389.55,244.13,389.55ZM245.92,403c-1.93-9.17,3-11.23,3-11.23C251.46,400.48,245.92,403,245.92,403Z"
     transform="translate(-97.64 -202.99)"
     id="path2889" />
  <path
     class="cls-2"
     d="M311.8,407.69c4.48,0,10.24-2.16,12.28-6.89,3-7.05.7-10.17.22-10.71a30.12,30.12,0,0,0-5.41-.54c-13.87,0-15.54,12.05-15.69,13.45C304.39,405.94,307.57,407.69,311.8,407.69Zm2.31-15.9s4.95,2.06,3,11.22C317.13,403,311.57,400.48,314.11,391.79Z"
     transform="translate(-97.64 -202.99)"
     id="path2891" />
  <path
     class="cls-2"
     d="M267.4,364c-2.95,12.44,2.58,18.48,2.58,18.48l1.39-5.7a16.09,16.09,0,0,1-2.88-5.18c-1.15-3.28,1.66-11.74,1.66-11.74s-1.89,1.21-3.1-2.59,1.33-6.79,3.4-12.55,0-12.9,0-12.9c-4.83,6-4.83,9-4.83,9l2.49-1.85s0,2.77-2.49,12.61S267.4,364,267.4,364Z"
     transform="translate(-97.64 -202.99)"
     id="path2893" />
  <path
     class="cls-2"
     d="M258.75,390.42c-2.44-9.85,0-14.34,0-14.34-1.72-1.9-3.27-6.05-3.27-6.05-1.21,6,0,7.26,0,7.26a39,39,0,0,1-3.28-3.8C253.93,386.1,258.75,390.42,258.75,390.42Z"
     transform="translate(-97.64 -202.99)"
     id="path2895" />
  <path
     class="cls-2"
     d="M274.25,373.84s.22-8.29,4.71-13.65,6.23-17.62,4.15-24.35c0,0-4.49,1.9-5.18,4.15,0,0-2.07-7.42,1.73-16.92,0,0-9,9.66-3.8,24.52A10.94,10.94,0,0,1,281,341.2s.34,3.63-2.25,11.05S271.6,365.89,274.25,373.84Z"
     transform="translate(-97.64 -202.99)"
     id="path2897" />
  <path
     class="cls-2"
     d="M274.1,340.07s-3.77-2.76-4.8,2.59c0,0-1,4.15,1.3,9.84a12.37,12.37,0,0,1,2.32-6.73s-.17,2.94,4.16,6.73c0,0,0-5.34,2.05-8.8a9.57,9.57,0,0,0-3.27,3.89S272.87,343.87,274.1,340.07Z"
     transform="translate(-97.64 -202.99)"
     id="path2899" />
  <path
     class="cls-2"
     d="M287.25,343.1a17.17,17.17,0,0,1,4.15,5.36,22.23,22.23,0,0,0-5.53-11.92S284.31,340.51,287.25,343.1Z"
     transform="translate(-97.64 -202.99)"
     id="path2901" />
  <path
     class="cls-2"
     d="M296.07,357.15c-3.29-1.33-4.67,0-4.67,0-4.66,1.61-4.15,7.71-3,8.4s3,5.35,3,5.35c.35-3.1-.69-5,0-8.29S296.07,357.15,296.07,357.15Z"
     transform="translate(-97.64 -202.99)"
     id="path2903" />
  <path
     class="cls-2"
     d="M300.56,342.49c1.2,1.12,2.24,6,2.24,6,2.25-9.85-4-15.37-3.62-14.34a19.25,19.25,0,0,1,0,4.49c-1.57-4.84-6.57-9-6.57-9,5,5.7,6.57,16.58,6.57,16.58Z"
     transform="translate(-97.64 -202.99)"
     id="path2905" />
  <path
     class="cls-2"
     d="M294.51,347.07c0,.52,1.94-7.77-6.89-17.44,0,0,.16,6.56,3.09,9.41A14.93,14.93,0,0,1,294.51,347.07Z"
     transform="translate(-97.64 -202.99)"
     id="path2907" />
  <path
     class="cls-2"
     d="M218.72,360.45c14.71-.72,32.1,14.41,32.1,14.41C233.57,357,218.72,360.45,218.72,360.45Z"
     transform="translate(-97.64 -202.99)"
     id="path2909" />
  <path
     class="cls-2"
     d="M236.46,373.84s13.47,6.06,15.74,7.59A26.82,26.82,0,0,0,236.46,373.84Z"
     transform="translate(-97.64 -202.99)"
     id="path2911" />
  <path
     class="cls-2"
     d="M247.35,384.08l.31.11Z"
     transform="translate(-97.64 -202.99)"
     id="path2913" />
  <path
     class="cls-2"
     d="M233.15,386.75a14.68,14.68,0,0,1,14.2-2.67C235.7,379.53,233.15,386.75,233.15,386.75Z"
     transform="translate(-97.64 -202.99)"
     id="path2915" />
  <path
     class="cls-2"
     d="M303.49,307.18c2.93,1,9.5-.7,15.37-7.6,0,0-9.79,24.79-14.29,31.52A285.64,285.64,0,0,0,325,295.89c11.52-23,36.85-51.8,41.69-35.45a16.39,16.39,0,0,1,1.89-6.69s-2.58,2-3.11,1.45,5.19-12.95,5.19-12.95-5.88,11.12-8.12,11.18,0-5.31,1.9-8.25-6.55,8.3-8.11,9.33-14.17,9.26-30.22,29.87c-11.28,14.48-16.57,20-20.21,21.25s-4.66-2.59-4.66-2.59A3.57,3.57,0,0,0,303.49,307.18Z"
     transform="translate(-97.64 -202.99)"
     id="path2917" />
  <path
     class="cls-2"
     d="M304.57,331.1c-.33.47-.51.71-.51.71C304.22,331.61,304.4,331.36,304.57,331.1Z"
     transform="translate(-97.64 -202.99)"
     id="path2919" />
  <path
     class="cls-2"
     d="M328.7,305.51c9-3.3,25.11-.89,25.11-.89-10.81-8.07-25.11-5.27-25.11-5.27,7.82-.23,16.57,2.84,16.57,2.84C339,301.25,328.7,305.51,328.7,305.51Z"
     transform="translate(-97.64 -202.99)"
     id="path2921" />
  <path
     class="cls-2"
     d="M321.56,317.77c18.18-3,32.25,7.59,32.25,7.59-15.88-14.73-28.55-10.12-28.55-10.12Z"
     transform="translate(-97.64 -202.99)"
     id="path2923" />
  <path
     class="cls-2"
     d="M368.77,304.63v-.45s-1.51,15.78.16,24.07c1.65,8.12-1.22,23.12-9,33.78-5.93-8.81-18.32-16.14-24.31-19.34a24.51,24.51,0,0,1,5.94-1.92l4.24-.69-3.18-2.89c-8.95-8.09-21-3.3-21-3.3l-.12-2.08.12,2.08c.09,0,11.56.82,18.59,5.15-2,.71-12.78,4.27-12.78,4.27l3,1.44c.23.11,24.64,10,28.91,22.18,4.59,13.08,4.79,16.72,2.06,21.58-3.48,6.22-1.5,19.62-1.5,19.62s-.61-10.06,2.29-15.2c3.6-6.45,4.76-12.42.5-25.05,8.94-12,10.84-31.63,8.19-40.79C369.93,323.47,368.69,316.63,368.77,304.63Z"
     transform="translate(-97.64 -202.99)"
     id="path2925" />
  <path
     class="cls-2"
     d="M301.36,416.61c1.3,9.05,10.64,9.6,10.64,9.6a13.3,13.3,0,0,1-6.54-7.55,25.47,25.47,0,0,1-.75-11c2.24,1.31,13.35,1.4,17.43-4.48s1-12.27,1-12.27c7.27.65,15.81,4.71,18.51,7.36s-.55,5.75-.55,5.75a4.29,4.29,0,0,0,3.92-4.67c-.1-2.89-7.29-9.88-26.6-10.17s-18.29,17.92-18.09,22-2.25,3.83-2.25,3.83C300.23,419.87,301.36,416.61,301.36,416.61Zm.81-13.58c0-.14,1.33-14.52,16.72-14.52a29.92,29.92,0,0,1,5.76.6h.14l.1.1c.16.14,3.81,3.45.14,12-2.22,5.17-8.41,7.52-13.23,7.52s-8.31-2-9.6-5.47l-.05-.11Z"
     transform="translate(-97.64 -202.99)"
     id="path2927" />
  <path
     class="cls-2"
     d="M292.48,442.37c3.57-1.78,4-7.46,4-7.46-.3,3-3.44,4.67-3.44,4.67s.36-1.55-1.07-4-11.42-1.71-11.42-1.71-10-.71-11.43,1.71-1.07,4-1.07,4-3.14-1.69-3.44-4.67c0,0,.41,5.68,4,7.46s7,.58,6.24,3.53-.19,2.66,2.13,3.51,2.68,2,2.68,3.27a3.69,3.69,0,0,1-2.32,3.84c-2.13,1-8.92,2.28-11.24,2.56,0,0,9.63.71,14.46-2.7,4.81,3.41,14.45,2.7,14.45,2.7-2.32-.28-9.1-1.57-11.24-2.56a3.71,3.71,0,0,1-2.32-3.84c0-1.28.36-2.41,2.68-3.27s2.84-.57,2.13-3.51S288.91,444.15,292.48,442.37Z"
     transform="translate(-97.64 -202.99)"
     id="path2929" />
  <path
     class="cls-2"
     d="M303.33,390.42s4.83-4.32,6.55-16.93a39.91,39.91,0,0,1-3.29,3.8s.9-.9.4-5c.85-1.37,1.51-2.31,1.51-2.31-.62.36-1.18.71-1.7,1.05-.07-.33-.13-.68-.21-1.05,0,0-.26.69-.67,1.64a19.83,19.83,0,0,0-4.68,4.06,27.07,27.07,0,0,0-1.37-13.81,20.5,20.5,0,0,1-1.92,9.67c1.37,4.14-.68,10.88-.68,10.88l1.55-2.25c.7,2.59-.87,10.2-.87,10.2,3.44-2.25,4.5-6.23,5.32-10.2a15.58,15.58,0,0,1,.71-2.17C304.46,380.25,304.85,384.3,303.33,390.42Z"
     transform="translate(-97.64 -202.99)"
     id="path2931" />
  <path
     class="cls-2"
     d="M327.91,442.15l3.21-1.13c8.62-3.12,15.89-12.27,15.89-12.27-11.92,9.84-21.39,11.4-21.39,11.4,8.12-7.26,8.78-15.71,8.78-15.71-4,9-13.46,16-15.62,17.48-.91-.41-1.93.19-3,.14-1.55-.08-2.76-1.38-4.31-1.23-.69.07-1.3.58-2.08.7-.46.09-1.48.1-1.94.13-1.13.07-3.1-.31-3.81.86-1.77,2.93,5.24.64,6.27.73.81.07,1.38.21,2.07.21a12.51,12.51,0,0,1,2.59.19,30.77,30.77,0,0,0,3.25.52,14.49,14.49,0,0,1-.82,1.88c-.78-.35-2,.27-2.63.49a13.72,13.72,0,0,1-4.43.55c-.85,2.06-4.71,1-6.59,1.38-.69.14-3.57,1.65-1.7,2.53.47.23,2.7-1.17,3.58-1.19.71,0,1.2.12,1.91,0s1.45-.35,2.08-.39,1,.31,1.73.19,1.19-.62,1.89-.74,1.52.3,2.23,0l.32-.12-.39.56c-1.28,0-2.64.13-4.05.26,0,0,1.44,0,3.74.19-.48.69-1,1.38-1.52,2.06-1.3-.14-3.65.86-4.64,1a10.25,10.25,0,0,0-3,1.17c-.74.34-2.1.5-2.55,1.26a1.67,1.67,0,0,0,2.11.33,12.25,12.25,0,0,1,2.5,2.47c-3.09,3.14-5.64,5.31-5.64,5.31a19.65,19.65,0,0,0,7-3.24,18.1,18.1,0,0,1,2.09,5.92A87.41,87.41,0,0,1,297.48,471a60.28,60.28,0,0,0,13.89-1.54,26.71,26.71,0,0,1-.45,5.36,24.42,24.42,0,0,0,1.1-5.52,43.56,43.56,0,0,0,10.68-4.21,17.37,17.37,0,0,1-.22,3.28,13.88,13.88,0,0,0,1-3.74,35.58,35.58,0,0,0,11-10.07,27.91,27.91,0,0,1,8,5.3s-1.88-3.47-7.26-6.41a23.21,23.21,0,0,0,2.41-4.73c-1.38,1.34-2.81,2.61-4.25,3.81a38.75,38.75,0,0,0-15.12-3.14c.68-1.18,1.22-2.24,1.61-3.08,23.09-.45,28.62,7.4,28.62,7.4-5.36-8.87-20.09-8.79-28.36-8,.4-.89.61-1.43.61-1.43a35.13,35.13,0,0,0,5.3-1.52c10.82.2,27.29,3.16,40.63,17.07C366.69,459.84,356.94,441.48,327.91,442.15Zm-22.84,13.53c1.46-.61,3.16-2.17,4.47-1.93a5.72,5.72,0,0,1,1.52.65c-1,1.13-2,2.2-2.93,3.19A12.16,12.16,0,0,0,305.07,455.68Zm6.93,10a12.79,12.79,0,0,0-2.12-6.18,30.36,30.36,0,0,0,5-5.05,11.66,11.66,0,0,1,6.92,6.16A103.92,103.92,0,0,1,312,465.72Zm20.12-12.17a90.54,90.54,0,0,1-9.1,6.35c-.93-2.4-3.17-4.65-7.92-5.71a38.29,38.29,0,0,0,2.73-4A61.54,61.54,0,0,1,332.12,453.55Z"
     transform="translate(-97.64 -202.99)"
     id="path2933" />
  <path
     class="cls-2"
     d="M343.36,360.45s-14.86-3.41-32.1,14.41C311.26,374.86,328.65,359.73,343.36,360.45Z"
     transform="translate(-97.64 -202.99)"
     id="path2935" />
  <path
     class="cls-2"
     d="M309.88,381.43c2.28-1.53,15.74-7.59,15.74-7.59A26.82,26.82,0,0,0,309.88,381.43Z"
     transform="translate(-97.64 -202.99)"
     id="path2937" />
  <path
     class="cls-2"
     d="M314.73,384.08l-.33.11C314.53,384.16,314.62,384.11,314.73,384.08Z"
     transform="translate(-97.64 -202.99)"
     id="path2939" />
  <path
     class="cls-2"
     d="M328.93,386.75s-2.56-7.22-14.2-2.67A14.68,14.68,0,0,1,328.93,386.75Z"
     transform="translate(-97.64 -202.99)"
     id="path2941" />
  <path
     class="cls-2"
     d="M264.59,471A88,88,0,0,1,251,466.14a18.33,18.33,0,0,1,2.09-5.92,19.65,19.65,0,0,0,7,3.24s-2.55-2.17-5.65-5.31a12.25,12.25,0,0,1,2.5-2.47,1.69,1.69,0,0,0,2.13-.33c-.46-.76-1.81-.92-2.56-1.26a10.36,10.36,0,0,0-3-1.17c-1-.16-3.36-1.16-4.64-1-.54-.68-1.05-1.37-1.54-2.06,2.32-.19,3.76-.19,3.76-.19-1.41-.13-2.77-.22-4.06-.26-.13-.19-.27-.38-.38-.56l.32.12c.7.26,1.49-.16,2.22,0s1.22.62,1.9.74,1.1-.22,1.72-.19,1.36.31,2.08.39,1.19-.06,1.9,0c.89,0,3.11,1.42,3.59,1.19,1.88-.88-1-2.39-1.68-2.53-1.89-.34-5.75.68-6.6-1.38a13.81,13.81,0,0,1-4.44-.55c-.64-.22-1.84-.84-2.63-.49a17.87,17.87,0,0,1-.82-1.88,30.32,30.32,0,0,0,3.25-.52,12.56,12.56,0,0,1,2.59-.19c.7,0,1.27-.14,2.08-.21,1-.09,8,2.2,6.26-.73-.71-1.17-2.67-.79-3.81-.86-.44,0-1.46,0-1.94-.13-.79-.12-1.39-.63-2.07-.7-1.56-.15-2.77,1.15-4.31,1.23-1.1.05-2.12-.55-3.05-.14-2.16-1.52-11.63-8.49-15.61-17.48,0,0,.66,8.45,8.79,15.71,0,0-9.48-1.56-21.4-11.4,0,0,7.27,9.15,15.9,12.27l3.21,1.13c-29-.67-38.78,17.69-38.78,17.69C208.73,445.93,225.2,443,236,442.77a35.58,35.58,0,0,0,5.3,1.52s.22.54.61,1.43c-8.26-.82-23-.9-28.34,8,0,0,5.51-7.85,28.6-7.4.41.84.94,1.9,1.61,3.08a38.79,38.79,0,0,0-15.12,3.14c-1.44-1.2-2.87-2.47-4.25-3.81a23.66,23.66,0,0,0,2.42,4.73c-5.39,2.94-7.27,6.41-7.27,6.41a27.91,27.91,0,0,1,8-5.3,35.57,35.57,0,0,0,11,10.07,13.67,13.67,0,0,0,1,3.74,17.37,17.37,0,0,1-.22-3.28,43.64,43.64,0,0,0,10.67,4.21,24.73,24.73,0,0,0,1.11,5.52,28.33,28.33,0,0,1-.46-5.36A60.28,60.28,0,0,0,264.59,471Zm-7.6-15.3a11.85,11.85,0,0,0-3,1.91c-1-1-1.95-2.06-2.93-3.19a5.72,5.72,0,0,1,1.52-.65C253.85,453.51,255.54,455.07,257,455.68Zm-27-2.13a61.73,61.73,0,0,1,14.3-3.39,37,37,0,0,0,2.74,4c-4.76,1.06-7,3.31-7.94,5.71A90.54,90.54,0,0,1,230,453.55Zm17.27.94a30,30,0,0,0,5,5.05,12.78,12.78,0,0,0-2.11,6.18,99.14,99.14,0,0,1-9.76-5.07A11.58,11.58,0,0,1,247.22,454.49Z"
     transform="translate(-97.64 -202.99)"
     id="path2943" />
  <text
     class="cls-3"
     transform="scale(0.73484692,1.3608276)"
     id="text2947"
     x="102.5183"
     y="244.36565"
     style="font-size:55.0694313px;font-family:MyriadPro-Regular, 'Myriad Pro';fill:#f7941d;stroke-width:0.73484695">
    <tspan
       class="cls-4"
       x="114.19501"
       y="244.36565"
       id="tspan2945"
       style="font-family:Algerian;stroke-width:0.73484695">CATSCOIN</tspan>
  </text>
  <ellipse
     class="cls-5"
     cx="186.02"
     cy="190.9"
     rx="178.21"
     ry="183.72"
     id="ellipse2949"
     style="opacity:0.047" />
</svg>
